<svg xmlns="http://www.w3.org/2000/svg" viewBox="3100 1150 3050 2950" fill="currentColor">
  <path d="M4354.82 2395.15l-641.29 0 0 -1043.67 -518.69 0 0 2700.35 518.69 0 0 -1137.99 930.5 0c99.31,0 187.16,-42.51 257.02,-104.49 29.17,-25.87 43.76,-42.09 67.45,-77.16l27.62 -44.68 0 1364.32 521.84 0 0 -1128.55c0,-275.9 -193.35,-483.68 -441.87,-523.22 -53.14,-8.46 -250.95,-4.91 -318.89,-4.91 25.23,-21.93 133.44,-28.86 263.21,-208.33 8.03,-11.11 13.21,-21.99 19.88,-33.56 23.63,-40.99 81.8,-173.93 101.34,-219.31l114.36 -256.58c27.34,-56.91 56.36,-131.98 81.76,-182.31 6.16,-12.22 11.49,-25.16 16.69,-36.74 8.37,-18.63 46,-98.65 47.21,-113.12l-578.42 0c-10.76,20.34 -18.77,42.96 -29.35,64.97 -5.26,10.95 -10.16,23.06 -14.21,32.93l-390.21 889.24c-8.43,18.76 -23.03,62.81 -34.64,62.81z"/>
  <path d="M5624.83 1533.81c0,162.36 81.74,224.33 81.74,242.06 0,23.25 -11.97,27.5 -32.81,55.21 -11.61,15.44 -24.68,29.28 -33.21,45.39l81.58 -3.31c11.75,-0.97 10.98,-2.67 25.21,-3.08l81.85 -3.04c13.69,-0.7 11.45,-2.49 25.14,-3.15 93.1,-4.5 197.72,-15.93 261.76,-77.75 118.61,-114.51 125.67,-360.29 17.22,-468.46 -45.13,-45.01 -112.6,-81.03 -178.4,-82.52 -17.05,-0.39 -19.63,-3.34 -34.58,-3.34 -29.74,0 -98.29,11.16 -125.81,22.15 -34.4,13.73 -66.41,32.15 -91.97,58.92 -40.84,42.79 -77.72,137.66 -77.72,220.92z"/>
</svg>
