<svg width="128" height="128" viewBox="0 0 128 128" xmlns="http://www.w3.org/2000/svg" fill="none">
  <defs>
    <clipPath id="badge-clip">
      <circle cx="64" cy="64" r="56" />
    </clipPath>
  </defs>

  <circle cx="64" cy="64" r="56" fill="#141414" />

  <g clip-path="url(#badge-clip)" transform="rotate(-18 64 64)">
    <rect x="4" y="30" width="120" height="10" rx="5" fill="#FFFFFF" />
    <rect x="-2" y="46" width="132" height="10" rx="5" fill="#FFFFFF" />
    <rect x="4" y="62" width="120" height="10" rx="5" fill="#FFFFFF" />
    <rect x="14" y="78" width="102" height="10" rx="5" fill="#FFFFFF" />
  </g>

  <path
    d="M46 18C60 24 70 39 70 57C70 75 60 90 46 96C55 86 60 74 60 57C60 40 55 28 46 18Z"
    fill="#141414"
  />

  <path
    d="M33 64C33 49.6 44.6 38 59 38C61.5 38 63.9 38.4 66.1 39.3C58.6 43.2 53.5 51.1 53.5 60.1C53.5 69.6 59.1 78.1 67.1 81.8C64.6 83 61.8 83.7 59 83.7C44.6 83.7 33 72.1 33 64Z"
    fill="#FFFFFF"
  />
</svg>
