<svg width="100" height="100" viewBox="0 0 100 100" fill="none" xmlns="http://www.w3.org/2000/svg">
  <path d="M28 34C25 19 30 8 38 10C45 12 48 24 47 35" stroke="currentColor" stroke-width="8" stroke-linecap="round" stroke-linejoin="round"/>
  <path d="M72 34C75 19 70 8 62 10C55 12 52 24 53 35" stroke="currentColor" stroke-width="8" stroke-linecap="round" stroke-linejoin="round"/>
  <path d="M20 100C18 93 19 87 23 82C18 76 18 67 23 61C14 56 15 40 30 34C34 32 39 32 43 34C46 29 53 29 57 34C61 32 66 32 70 34C85 40 86 56 77 61C82 67 82 76 77 82C81 87 82 93 80 100" stroke="currentColor" stroke-width="8" stroke-linecap="round" stroke-linejoin="round"/>
  <path d="M39 53H39.01" stroke="currentColor" stroke-width="8" stroke-linecap="round"/>
  <path d="M61 53H61.01" stroke="currentColor" stroke-width="8" stroke-linecap="round"/>
  <path d="M50 73C60 73 68 67 68 60C68 53 60 48 50 48C40 48 32 53 32 60C32 67 40 73 50 73Z" stroke="currentColor" stroke-width="7" stroke-linejoin="round"/>
  <path d="M46 60C48 58 52 58 54 60" stroke="currentColor" stroke-width="6" stroke-linecap="round" stroke-linejoin="round"/>
  <path d="M50 62V68" stroke="currentColor" stroke-width="6" stroke-linecap="round"/>
</svg>
