<svg xmlns="http://www.w3.org/2000/svg" viewBox="0 0 50.176 54.457" fill="currentColor">
  <path d="M 20.851 31.2 L 20.851 29.475 Q 20.851 26.7 19.52 24.863 Q 18.189 23.025 14.176 23.025 Q 11.251 23.025 8.457 24.019 Q 5.664 25.013 4.351 26.475 L 1.351 19.275 Q 3.601 17.737 7.37 16.444 Q 11.139 15.15 15.751 15.15 Q 21.301 15.15 24.376 16.838 Q 27.451 18.525 28.689 21.619 Q 29.926 24.713 29.926 28.875 L 29.926 53.4 L 21.901 53.4 L 21.226 48.075 Q 17.326 54.45 10.201 54.45 Q 6.751 54.45 4.482 52.913 Q 2.214 51.375 1.107 48.825 Q 0.001 46.275 0.001 43.2 Q 0.001 41.475 0.882 39.413 Q 1.764 37.35 4.014 35.475 Q 6.264 33.6 10.351 32.4 Q 14.439 31.2 20.851 31.2 Z M 20.851 42.375 L 20.851 37.05 Q 20.476 36.975 20.045 36.975 L 19.051 36.975 Q 16.989 36.975 14.72 37.444 Q 12.451 37.913 10.876 39.075 Q 9.301 40.238 9.301 42.3 Q 9.301 45 10.501 46.125 Q 11.701 47.25 14.176 47.25 Q 15.864 47.25 17.795 45.881 Q 19.726 44.513 20.851 42.375 Z M 49.801 53.4 L 40.051 53.4 L 40.051 16.05 L 49.801 16.05 L 49.801 53.4 Z M 50.176 9.975 L 39.676 9.975 L 39.676 0 L 50.176 0 L 50.176 9.975 Z"/>
</svg>

