<?xml version="1.0" encoding="UTF-8"?>
<svg version="1.1" xmlns="http://www.w3.org/2000/svg" width="359" height="354">
<path d="M0 0 C0.68664734 0.00087616 1.37329468 0.00175232 2.08074951 0.00265503 C19.29213744 0.07519537 36.0315584 3.27734069 49.1328125 15.53125 C60.37937759 28.35342083 65.10423718 43.24118438 64.97705078 60.03540039 C64.97734283 61.06083954 64.97763489 62.08627869 64.97793579 63.14279175 C64.97655214 66.50283529 64.96103655 69.86265186 64.9453125 73.22265625 C64.94157894 75.56391784 64.93873359 77.90518099 64.93673706 80.2464447 C64.92912764 86.38667164 64.90950234 92.52680287 64.8873291 98.66699219 C64.86681257 104.94139308 64.85772295 111.21580955 64.84765625 117.49023438 C64.82625384 129.78520491 64.79109371 142.08007949 64.75 154.375 C49.9 154.375 35.05 154.375 19.75 154.375 C19.255 145.465 19.255 145.465 18.75 136.375 C17.43 137.90125 16.11 139.4275 14.75 141 C6.66025334 149.96328738 -3.44573472 157.54145009 -15.86889648 158.59765625 C-33.2138626 159.27687511 -46.77996446 158.38469188 -60.25 146.375 C-62.52647892 143.85228969 -64.43938018 141.24594855 -66.25 138.375 C-66.8275 137.50875 -67.405 136.6425 -68 135.75 C-74.90136599 122.63740461 -74.02282255 109.18528532 -70.25 95.375 C-69.94255859 94.23998047 -69.94255859 94.23998047 -69.62890625 93.08203125 C-65.53209478 80.33356822 -54.8362666 72.93052132 -43.53125 67.0859375 C-31.85899199 62.03398737 -19.24332118 60.43486262 -6.73046875 58.93701172 C-4.09231159 58.62108548 -1.45632962 58.29030399 1.1796875 57.95703125 C2.8722912 57.74655266 4.56499617 57.53688655 6.2578125 57.328125 C7.03802765 57.23130432 7.8182428 57.13448364 8.62210083 57.034729 C12.3511456 56.59054958 15.99331322 56.26135859 19.75 56.375 C18.5577088 48.57804304 17.28384129 42.34663927 11 37.0625 C-1.32019417 30.6654761 -16.5096798 32.65231515 -29.359375 36.59765625 C-37.48188039 39.24299679 -44.65395548 42.37729539 -51.83203125 47.0546875 C-54.25 48.375 -54.25 48.375 -58.25 48.375 C-58.27472039 43.73022856 -58.29286968 39.08549543 -58.30493164 34.44067383 C-58.30996014 32.86058892 -58.31678378 31.28050866 -58.32543945 29.70043945 C-58.33756992 27.42918754 -58.34324313 25.15799715 -58.34765625 22.88671875 C-58.35281754 22.18036789 -58.35797882 21.47401703 -58.36329651 20.7462616 C-58.36364803 17.67245609 -58.2303186 15.3159558 -57.25 12.375 C-48.0584612 6.9579334 -36.55948402 4.71008057 -26.25 2.375 C-25.0112915 2.09027832 -25.0112915 2.09027832 -23.74755859 1.79980469 C-15.85597923 0.16444125 -8.03765314 -0.02504281 0 0 Z M2.875 85.75 C2.02808594 85.87632812 1.18117188 86.00265625 0.30859375 86.1328125 C-12.85169578 87.98103646 -12.85169578 87.98103646 -24.25 94.375 C-26.20500857 96.90480707 -26.20500857 96.90480707 -27.25 99.375 C-27.58 100.035 -27.91 100.695 -28.25 101.375 C-28.76228015 106.98488749 -29.01256033 111.82264504 -26.5 116.9375 C-24.49376784 119.11091817 -22.74981283 120.81261698 -20.25 122.375 C-19.41855469 122.89513672 -19.41855469 122.89513672 -18.5703125 123.42578125 C-12.61602596 125.86162575 -4.39773397 125.26782692 1.7109375 123.53515625 C7.76567765 120.76860575 11.98892292 116.82207715 15.75 111.375 C16.18441406 110.75367188 16.61882812 110.13234375 17.06640625 109.4921875 C21.3215225 101.93083109 20.07539409 92.75389778 19.75 84.375 C13.98937842 84.20327415 8.56110008 84.85806273 2.875 85.75 Z " fill="#7A4BF1" transform="translate(133.25,126.625)"/>
<path d="M0 0 C1.2372583 -0.00459229 2.4745166 -0.00918457 3.74926758 -0.01391602 C4.92642334 -0.01190186 6.1035791 -0.0098877 7.31640625 -0.0078125 C8.90304077 -0.00612061 8.90304077 -0.00612061 10.52172852 -0.00439453 C13.4375 0.125 13.4375 0.125 18.4375 1.125 C18.4375 50.625 18.4375 100.125 18.4375 151.125 C2.5975 151.125 -13.2425 151.125 -29.5625 151.125 C-29.58504587 131.71508286 -29.6034785 112.30517626 -29.61431217 92.89524937 C-29.61947542 83.88353063 -29.62651866 74.87182058 -29.63793945 65.86010742 C-29.64788541 58.0084045 -29.65435322 50.15670786 -29.65658849 42.30499882 C-29.65789575 38.14496548 -29.66098255 33.98495015 -29.66823006 29.82492256 C-29.67498889 25.91391588 -29.67711724 22.00293473 -29.67560768 18.09192276 C-29.67588407 16.65232772 -29.67789001 15.21273187 -29.68170547 13.77314186 C-29.68664051 11.81605767 -29.68489807 9.85895996 -29.68275452 7.90187073 C-29.68367631 6.80401528 -29.6845981 5.70615984 -29.68554783 4.57503605 C-29.5625 2.125 -29.5625 2.125 -28.5625 1.125 C-19.15274212 -0.2433849 -9.48244484 0.02005259 0 0 Z " fill="#5463E0" transform="translate(262.5625,129.875)"/>
<path d="M0 0 C5.06600472 3.74554234 7.25243914 9.10887991 9.18359375 14.90234375 C10.17502357 22.62133304 8.58411932 28.50057413 4.18359375 34.90234375 C-0.41231804 39.97922305 -6.00853382 43.88530648 -12.98828125 44.37109375 C-14.51397333 44.4053771 -16.04038135 44.41498064 -17.56640625 44.40234375 C-18.36336914 44.39662354 -19.16033203 44.39090332 -19.98144531 44.38500977 C-28.34411793 44.13208576 -34.39689288 41.73626321 -40.25390625 35.65234375 C-44.67990509 29.8847532 -46.59026833 23.1250565 -45.81640625 15.90234375 C-44.50240986 10.10649919 -42.54643473 4.76016839 -37.81640625 0.90234375 C-25.47678785 -6.59900582 -12.57972482 -7.60194124 0 0 Z " fill="#5463E2" transform="translate(275.81640625,63.09765625)"/>
<path d="M0 0 C13.47913942 6.1293471 22.01778337 14.50780395 27.375 28.6875 C30.21948113 37.02156388 31.29355799 44.87851467 31.22705078 53.66040039 C31.22734283 54.68583954 31.22763489 55.71127869 31.22793579 56.76779175 C31.22655214 60.12783529 31.21103655 63.48765186 31.1953125 66.84765625 C31.19157894 69.18891784 31.18873359 71.53018099 31.18673706 73.8714447 C31.17912764 80.01167164 31.15950234 86.15180287 31.1373291 92.29199219 C31.11681257 98.56639308 31.10772295 104.84080955 31.09765625 111.11523438 C31.07625384 123.41020491 31.04109371 135.70507949 31 148 C16.15 148 1.3 148 -14 148 C-14 144.7 -14 141.4 -14 138 C-13.67 138 -13.34 138 -13 138 C-13 140.97 -13 143.94 -13 147 C1.19 147 15.38 147 30 147 C30 117.63 30 88.26 30 58 C29.34 58 28.68 58 28 58 C28 57.34 28 56.68 28 56 C27.34 56 26.68 56 26 56 C26.33 54.35 26.66 52.7 27 51 C27.66 51 28.32 51 29 51 C29 48.69 29 46.38 29 44 C28.34 44 27.68 44 27 44 C27.04125 43.154375 27.0825 42.30875 27.125 41.4375 C26.98691185 37.64007597 26.17972958 34.60472927 25 31 C24.71125 30.05125 24.4225 29.1025 24.125 28.125 C23.75375 27.42375 23.3825 26.7225 23 26 C21.68 25.67 20.36 25.34 19 25 C18.34 21.7 17.68 18.4 17 15 C16.34 15 15.68 15 15 15 C14.67 13.35 14.34 11.7 14 10 C11.2160817 11.39195915 11.02101003 13.15575779 10 16 C9.67 16 9.34 16 9 16 C9 14.35 9 12.7 9 11 C8.01 10.67 7.02 10.34 6 10 C6 8.02 6 6.04 6 4 C4.02 3.34 2.04 2.68 0 2 C0 1.34 0 0.68 0 0 Z " fill="#6251C9" transform="translate(167,133)"/>
<path d="M0 0 C1.25554687 -0.01417969 2.51109375 -0.02835938 3.8046875 -0.04296875 C7.125 0.1875 7.125 0.1875 10.125 2.1875 C11.23875 2.290625 12.3525 2.39375 13.5 2.5 C18.01110056 3.35555355 19.27432432 4.64341672 22.125 8.1875 C25.14821707 12.92081965 27.26625678 16.60077022 27.25 22.25 C27.25386719 23.59771484 27.25386719 23.59771484 27.2578125 24.97265625 C27.125 27.1875 27.125 27.1875 26.125 28.1875 C24.27212498 28.25976502 22.41666122 28.2713122 20.5625 28.25 C19.55058594 28.24097656 18.53867188 28.23195312 17.49609375 28.22265625 C16.71363281 28.21105469 15.93117187 28.19945312 15.125 28.1875 C15.125 28.8475 15.125 29.5075 15.125 30.1875 C12.815 30.1875 10.505 30.1875 8.125 30.1875 C7.63 29.1975 7.63 29.1975 7.125 28.1875 C9.35350277 27.84975668 11.58283467 27.5174813 13.8125 27.1875 C15.05386719 27.001875 16.29523438 26.81625 17.57421875 26.625 C20.48386371 26.26649589 23.20200022 26.09807744 26.125 26.1875 C24.9327088 18.39054304 23.65884129 12.15913927 17.375 6.875 C5.93161791 0.93324392 -6.66367511 2.85559977 -18.875 5.1875 C-21.20564912 5.546973 -23.53836172 5.86886751 -25.875 6.1875 C-20.22945515 3.02599488 -14.20531663 2.07374433 -7.875 1.1875 C-5.94921745 -0.73828255 -2.55464592 0.01306056 0 0 Z " fill="#7553C8" transform="translate(126.875,156.8125)"/>
<path d="M0 0 C0.33 0 0.66 0 1 0 C1.66 6.6 2.32 13.2 3 20 C14.88 20.33 26.76 20.66 39 21 C39 19.35 39 17.7 39 16 C40.65 15.67 42.3 15.34 44 15 C44 17.31 44 19.62 44 22 C29.81 22 15.62 22 1 22 C0.34 16.39 -0.32 10.78 -1 5 C-1.99 5.99 -2.98 6.98 -4 8 C-3.67 6.35 -3.34 4.7 -3 3 C-2.34 3 -1.68 3 -1 3 C-0.67 2.01 -0.34 1.02 0 0 Z " fill="#6E55DD" transform="translate(153,258)"/>
<path d="M0 0 C1.10844919 3.32534757 0.84454356 5.62182575 0 9 C-0.66 9 -1.32 9 -2 9 C-2.06058594 9.58007812 -2.12117188 10.16015625 -2.18359375 10.7578125 C-2.554847 14.21903508 -2.93333183 17.63702885 -3.5625 21.0625 C-4.56352955 27.78369841 -3.85408815 33.91254414 -2.5 40.5 C-2.28537109 41.59054688 -2.28537109 41.59054688 -2.06640625 42.703125 C-1.71766302 44.47009071 -1.35980277 46.23525309 -1 48 C-3 47 -3 47 -4 44.5625 C-8.35250359 29.05670596 -7.32939112 15.96037901 -1 1 C-0.67 0.67 -0.34 0.34 0 0 Z " fill="#854BD2" transform="translate(67,213)"/>
<path d="M0 0 C1.60407328 -0.02708567 3.2082785 -0.04643483 4.8125 -0.0625 C5.70582031 -0.07410156 6.59914062 -0.08570313 7.51953125 -0.09765625 C10 0 10 0 13 1 C13 2.65 13 4.3 13 6 C12.34 6 11.68 6 11 6 C11.06960937 7.0621875 11.13921875 8.124375 11.2109375 9.21875 C11.79457469 22.08308632 11.79457469 22.08308632 8 27 C6.3125 28.8125 6.3125 28.8125 5 30 C4.67 29.34 4.34 28.68 4 28 C4.61875 26.845 5.2375 25.69 5.875 24.5 C9.34859033 17.22941611 8.82949556 8.90288078 9 1 C6.03 1 3.06 1 0 1 C0 0.67 0 0.34 0 0 Z " fill="#6C52C8" transform="translate(144,210)"/>
<path d="M0 0 C0.66 0.33 1.32 0.66 2 1 C1.34 1.66 0.68 2.32 0 3 C-0.17502995 5.58103306 -0.23162279 8.05308163 -0.1953125 10.6328125 C-0.1924826 11.38464813 -0.18965271 12.13648376 -0.18673706 12.91110229 C-0.17552874 15.31589578 -0.15042352 17.72031881 -0.125 20.125 C-0.11497102 21.75390088 -0.10584503 23.38280758 -0.09765625 25.01171875 C-0.07558735 29.00795556 -0.04105351 33.00391494 0 37 C-0.99 37 -1.98 37 -3 37 C-3.02472039 32.35522856 -3.04286968 27.71049543 -3.05493164 23.06567383 C-3.05996014 21.48558892 -3.06678378 19.90550866 -3.07543945 18.32543945 C-3.08756992 16.05418754 -3.09324313 13.78299715 -3.09765625 11.51171875 C-3.10281754 10.80536789 -3.10797882 10.09901703 -3.11329651 9.3712616 C-3.11364803 6.29745609 -2.9803186 3.9409558 -2 1 C-1.34 0.67 -0.68 0.34 0 0 Z " fill="#7246BB" transform="translate(78,138)"/>
<path d="M0 0 C35.17114823 -0.85614629 35.17114823 -0.85614629 46 4 C46.66 4.66 47.32 5.32 48 6 C47.01 5.855625 46.02 5.71125 45 5.5625 C42.97792095 5.26778402 40.96196388 4.99598109 38.9296875 4.78125 C35.99865068 4.46920045 33.3895723 4.16883236 30.67114258 2.99072266 C27.4703005 1.80353527 24.7964856 1.67935577 21.38671875 1.5859375 C20.13955078 1.54726562 18.89238281 1.50859375 17.60742188 1.46875 C16.31384766 1.4378125 15.02027344 1.406875 13.6875 1.375 C12.37458984 1.33632812 11.06167969 1.29765625 9.70898438 1.2578125 C6.47279563 1.16366883 3.23661065 1.07803648 0 1 C0 0.67 0 0.34 0 0 Z " fill="#6C52C0" transform="translate(118,127)"/>
<path d="M0 0 C0.7003688 0.00141495 1.40073761 0.0028299 2.12232971 0.00428772 C4.33290091 0.00983148 6.54336629 0.02237299 8.75390625 0.03515625 C10.2636704 0.04017854 11.77343616 0.04474016 13.28320312 0.04882812 C16.96097118 0.05978238 20.63867837 0.07700735 24.31640625 0.09765625 C24.31640625 0.42765625 24.31640625 0.75765625 24.31640625 1.09765625 C14.41640625 1.09765625 4.51640625 1.09765625 -5.68359375 1.09765625 C-5.68359375 1.75765625 -5.68359375 2.41765625 -5.68359375 3.09765625 C-9.37777576 4.32905025 -11.88921985 3.74198389 -15.68359375 3.09765625 C-15.35359375 2.43765625 -15.02359375 1.77765625 -14.68359375 1.09765625 C-9.77425966 0.11190085 -4.99501878 -0.02006032 0 0 Z " fill="#794ED7" transform="translate(121.68359375,127.90234375)"/>
<path d="M0 0 C0.7425 0.2475 1.485 0.495 2.25 0.75 C2.25 1.74 2.25 2.73 2.25 3.75 C1.59 3.75 0.93 3.75 0.25 3.75 C0.25 4.74 0.25 5.73 0.25 6.75 C-2.39 7.41 -5.03 8.07 -7.75 8.75 C-7.404156 5.63740396 -6.87620033 3.92127187 -5 1.375 C-2.75 -0.25 -2.75 -0.25 0 0 Z " fill="#8C46F1" transform="translate(84.75,136.25)"/>
<path d="M0 0 C0 0.33 0 0.66 0 1 C-1.64548828 1.25523438 -1.64548828 1.25523438 -3.32421875 1.515625 C-4.77878037 1.75961598 -6.23320034 2.00445245 -7.6875 2.25 C-8.40873047 2.35957031 -9.12996094 2.46914063 -9.87304688 2.58203125 C-14.6419648 3.40951473 -17.34475191 4.65805889 -21 8 C-22.97711651 9.04451438 -24.97250996 10.05698138 -27 11 C-24.94337174 6.11810465 -21.61184752 4.31000504 -17 2 C-11.4122112 -0.14070494 -5.92258229 -0.24677426 0 0 Z " fill="#5D68C7" transform="translate(262,58)"/>
<path d="M0 0 C5.28772206 5.99275167 6.2185248 11.05659151 6.265625 18.828125 C6 21 6 21 4 23 C4 19.04 4 15.08 4 11 C3.01 10.67 2.02 10.34 1 10 C1.33 8.02 1.66 6.04 2 4 C1.34 4 0.68 4 0 4 C0 2.68 0 1.36 0 0 Z " fill="#4F67BF" transform="translate(279,67)"/>
<path d="M0 0 C1.4540625 0.0309375 1.4540625 0.0309375 2.9375 0.0625 C0.51127534 2.48872466 -1.69776937 3.27750413 -4.875 4.5625 C-5.91269531 4.9853125 -6.95039062 5.408125 -8.01953125 5.84375 C-9.02371094 6.2459375 -10.02789062 6.648125 -11.0625 7.0625 C-12.01511719 7.4440625 -12.96773438 7.825625 -13.94921875 8.21875 C-14.64660156 8.4971875 -15.34398438 8.775625 -16.0625 9.0625 C-16.0625 8.0725 -16.0625 7.0825 -16.0625 6.0625 C-14.7425 6.0625 -13.4225 6.0625 -12.0625 6.0625 C-12.0625 5.0725 -12.0625 4.0825 -12.0625 3.0625 C-11.0725 3.0625 -10.0825 3.0625 -9.0625 3.0625 C-9.0625 2.4025 -9.0625 1.7425 -9.0625 1.0625 C-7.8559375 1.0934375 -7.8559375 1.0934375 -6.625 1.125 C-3.4084517 1.0465476 -3.39792468 0.0693454 0 0 Z " fill="#814DD7" transform="translate(98.0625,162.9375)"/>
<path d="M0 0 C2.97 0.495 2.97 0.495 6 1 C5.07161713 2.31896465 4.13194268 3.62998689 3.1875 4.9375 C2.40439453 6.03384766 2.40439453 6.03384766 1.60546875 7.15234375 C0 9 0 9 -3 10 C-2.25 3.375 -2.25 3.375 0 0 Z " fill="#595FEA" transform="translate(234,69)"/>
<path d="M0 0 C0.33 0 0.66 0 1 0 C2.03368414 15.77325435 2.03368414 15.77325435 -2 21 C-3.6875 22.8125 -3.6875 22.8125 -5 24 C-5.33 23.34 -5.66 22.68 -6 22 C-5.22265625 19.8359375 -5.22265625 19.8359375 -4.0625 17.375 C-3.68222656 16.55773437 -3.30195313 15.74046875 -2.91015625 14.8984375 C-2.60980469 14.27195313 -2.30945313 13.64546875 -2 13 C-1.34 13 -0.68 13 0 13 C0 8.71 0 4.42 0 0 Z " fill="#7053D6" transform="translate(154,216)"/>
<path d="M0 0 C0.66 0.33 1.32 0.66 2 1 C1.34 1.66 0.68 2.32 0 3 C-0.54769255 4.31446211 -1.04374468 5.65107122 -1.5 7 C-2.42741645 9.7419269 -2.90626198 10.90626198 -5 13 C-6.32014582 9.03956254 -5.27727477 6.90278401 -4 3 C-3 1 -3 1 0 0 Z " fill="#8D41EF" transform="translate(73,207)"/>
<path d="M0 0 C1.04449911 3.13349732 0.93423645 3.98968256 0 7 C-2.31 6.34 -4.62 5.68 -7 5 C-7 4.01 -7 3.02 -7 2 C-4.35261084 0.5393715 -3.10551666 0 0 0 Z " fill="#8B41F4" transform="translate(87,272)"/>
<path d="M0 0 C0.33 0.66 0.66 1.32 1 2 C1.99 2.33 2.98 2.66 4 3 C3.67 7.62 3.34 12.24 3 17 C2.34 17 1.68 17 1 17 C1 16.34 1 15.68 1 15 C0.34 15 -0.32 15 -1 15 C-0.67 13.35 -0.34 11.7 0 10 C0.66 10 1.32 10 2 10 C2 7.69 2 5.38 2 3 C1.34 3 0.68 3 0 3 C0 2.01 0 1.02 0 0 Z " fill="#6855E7" transform="translate(194,174)"/>
<path d="M0 0 C-0.33 0.99 -0.66 1.98 -1 3 C-1.99 3 -2.98 3 -4 3 C-4 3.66 -4 4.32 -4 5 C-3.01 5.33 -2.02 5.66 -1 6 C-0.67 7.98 -0.34 9.96 0 12 C-0.99 11.34 -1.98 10.68 -3 10 C-3 8.68 -3 7.36 -3 6 C-3.99 5.67 -4.98 5.34 -6 5 C-6.33 4.01 -6.66 3.02 -7 2 C-4.35261084 0.5393715 -3.10551666 0 0 0 Z " fill="#8F40F6" transform="translate(72,256)"/>
<path d="M0 0 C0.33 0.99 0.66 1.98 1 3 C-1.31 4.32 -3.62 5.64 -6 7 C-5.67 7.66 -5.34 8.32 -5 9 C-6.98 9.33 -8.96 9.66 -11 10 C-7.69984002 5.86062408 -4.82675589 2.41337795 0 0 Z " fill="#8347DA" transform="translate(82,198)"/>
<path d="M0 0 C0.94875 0.04125 1.8975 0.0825 2.875 0.125 C3.4375 2.0625 3.4375 2.0625 3.875 4.125 C2.875 5.125 2.875 5.125 0.3125 5.1875 C-0.8940625 5.1565625 -0.8940625 5.1565625 -2.125 5.125 C-2.125 4.465 -2.125 3.805 -2.125 3.125 C-3.115 2.795 -4.105 2.465 -5.125 2.125 C-3.125 0.125 -3.125 0.125 0 0 Z " fill="#8445F8" transform="translate(108.125,130.875)"/>
<path d="M0 0 C1.32 0 2.64 0 4 0 C4 1.98 4 3.96 4 6 C2.35 6 0.7 6 -1 6 C-1.042721 4.33388095 -1.04063832 2.66617115 -1 1 C-0.67 0.67 -0.34 0.34 0 0 Z " fill="#6855E9" transform="translate(193,273)"/>
<path d="M0 0 C4.6875 0.78125 4.6875 0.78125 9.375 1.5625 C10.674375 1.7790625 10.674375 1.7790625 12 2 C12.33 2.99 12.66 3.98 13 5 C12.01 5.33 11.02 5.66 10 6 C9.01 5.34 8.02 4.68 7 4 C5.68 4 4.36 4 3 4 C1.25 2 1.25 2 0 0 Z " fill="#7050EB" transform="translate(155,131)"/>
<path d="M0 0 C0.66 0.33 1.32 0.66 2 1 C1.67 1.99 1.34 2.98 1 4 C0.195625 4.28875 -0.60875 4.5775 -1.4375 4.875 C-4.23928441 5.77944219 -4.23928441 5.77944219 -5.3125 8.625 C-5.539375 9.40875 -5.76625 10.1925 -6 11 C-6.33 11 -6.66 11 -7 11 C-7.20086443 7.28400809 -7.1519437 6.22791555 -5 3 C-4.34 3 -3.68 3 -3 3 C-2.67 2.34 -2.34 1.68 -2 1 C-1.34 0.67 -0.68 0.34 0 0 Z " fill="#903FF7" transform="translate(70,219)"/>
<path d="M0 0 C0.33 0 0.66 0 1 0 C1 4.29 1 8.58 1 13 C0.67 13 0.34 13 0 13 C-0.33 10.36 -0.66 7.72 -1 5 C-1.99 5.99 -2.98 6.98 -4 8 C-3.67 6.35 -3.34 4.7 -3 3 C-2.34 3 -1.68 3 -1 3 C-0.67 2.01 -0.34 1.02 0 0 Z " fill="#6B4AD8" transform="translate(153,258)"/>
<path d="M0 0 C0.99 0.495 0.99 0.495 2 1 C2.3911938 3.06265822 2.50674519 5.09443267 2.65625 7.1875 C2.7696875 7.785625 2.883125 8.38375 3 9 C3.66 9.33 4.32 9.66 5 10 C4.34 10 3.68 10 3 10 C3.33 11.65 3.66 13.3 4 15 C1.1496974 11.79054398 0.56548301 9.50011452 0.3125 5.25 C0.24675781 4.26515625 0.18101562 3.2803125 0.11328125 2.265625 C0.07589844 1.51796875 0.03851563 0.7703125 0 0 Z " fill="#5D5CC3" transform="translate(230,80)"/>
<path d="M0 0 C0.33 0.66 0.66 1.32 1 2 C-0.98 2 -2.96 2 -5 2 C-5 2.66 -5 3.32 -5 4 C-7.31 3.67 -9.62 3.34 -12 3 C-12 2.67 -12 2.34 -12 2 C-10.56656 1.46809459 -9.12804633 0.94984742 -7.6875 0.4375 C-6.48673828 0.00244141 -6.48673828 0.00244141 -5.26171875 -0.44140625 C-3 -1 -3 -1 0 0 Z " fill="#794CDF" transform="translate(137,250)"/>
<path d="M0 0 C2.64 0.33 5.28 0.66 8 1 C8 1.66 8 2.32 8 3 C3.56923077 5.09230769 3.56923077 5.09230769 0.6875 4.625 C0.130625 4.41875 -0.42625 4.2125 -1 4 C-0.67 2.68 -0.34 1.36 0 0 Z " fill="#8743F7" transform="translate(91,160)"/>
<path d="M0 0 C0.66 0 1.32 0 2 0 C0.76075855 4.95696581 -0.78577758 7.11658466 -5 10 C-5.33 8.68 -5.66 7.36 -6 6 C-4.68 6 -3.36 6 -2 6 C-1.34 4.02 -0.68 2.04 0 0 Z " fill="#5366C5" transform="translate(281,91)"/>
<path d="M0 0 C4.43379675 2.21689838 6.46636932 4.77728219 9 9 C6.625 8.8125 6.625 8.8125 4 8 C2.8125 5.5 2.8125 5.5 2 3 C1.34 2.67 0.68 2.34 0 2 C0 1.34 0 0.68 0 0 Z " fill="#796AD4" transform="translate(178,140)"/>
<path d="M0 0 C5.28798182 0.41474367 8.11690718 1.35224614 12 5 C7.43545749 4.45660208 4.0271824 3.20536179 0 1 C0 0.67 0 0.34 0 0 Z " fill="#804FCA" transform="translate(81,278)"/>
<path d="M0 0 C0.33 0.66 0.66 1.32 1 2 C2.65 2 4.3 2 6 2 C5 5 5 5 2.9375 6.1875 C2.298125 6.455625 1.65875 6.72375 1 7 C0.67 4.69 0.34 2.38 0 0 Z " fill="#8B44EB" transform="translate(77,168)"/>
<path d="M0 0 C0.99 0.33 1.98 0.66 3 1 C0.69 3.31 -1.62 5.62 -4 8 C-4.33 7.01 -4.66 6.02 -5 5 C-4.34 5 -3.68 5 -3 5 C-2.87625 4.360625 -2.7525 3.72125 -2.625 3.0625 C-2.41875 2.381875 -2.2125 1.70125 -2 1 C-1.34 0.67 -0.68 0.34 0 0 Z " fill="#7252CF" transform="translate(146,266)"/>
<path d="M0 0 C-1.1446875 1.11375 -1.1446875 1.11375 -2.3125 2.25 C-4.4393702 4.4263323 -6.2559956 6.52167796 -8 9 C-8.36190476 3.57142857 -8.36190476 3.57142857 -6.8125 1.125 C-4.43963721 -0.34781139 -2.74086056 -0.22223194 0 0 Z " fill="#7E51D7" transform="translate(114,217)"/>
<path d="M0 0 C0 1.32 0 2.64 0 4 C-1.98 4.66 -3.96 5.32 -6 6 C-6 4.68 -6 3.36 -6 2 C-2.25 0 -2.25 0 0 0 Z " fill="#8943F3" transform="translate(96,193)"/>
<path d="M0 0 C1.32 0.66 2.64 1.32 4 2 C4 3.32 4 4.64 4 6 C1.525 5.01 1.525 5.01 -1 4 C-0.67 2.68 -0.34 1.36 0 0 Z " fill="#6376D7" transform="translate(275,64)"/>
<path d="M0 0 C-1.66666667 1.66666667 -3.33333333 3.33333333 -5 5 C-5 4.34 -5 3.68 -5 3 C-6.65 3.33 -8.3 3.66 -10 4 C-7.39928297 0.98864344 -3.94054294 -1.97027147 0 0 Z " fill="#8148CE" transform="translate(94,194)"/>
<path d="M0 0 C1.0625 1.875 1.0625 1.875 2 4 C1.67 4.66 1.34 5.32 1 6 C1.66 6.33 2.32 6.66 3 7 C2.01 7.33 1.02 7.66 0 8 C-0.38063221 5.6739143 -0.71269945 3.33944736 -1 1 C-0.67 0.67 -0.34 0.34 0 0 Z M-2 8 C-1.01 8.495 -1.01 8.495 0 9 C-0.99 9.495 -0.99 9.495 -2 10 C-2 9.34 -2 8.68 -2 8 Z " fill="#714EEC" transform="translate(157,208)"/>
<path d="M0 0 C-1 1.5 -1 1.5 -3 3 C-5.71846235 3.27345479 -8.25677199 3.13491285 -11 3 C-6.98213116 0.99106558 -4.56087444 -0.12002301 0 0 Z " fill="#794AD2" transform="translate(105,190)"/>
<path d="M0 0 C1.875 0.1875 1.875 0.1875 4 1 C5.25 3.5625 5.25 3.5625 6 6 C3.5625 5.25 3.5625 5.25 1 4 C0.1875 1.875 0.1875 1.875 0 0 Z " fill="#6755D3" transform="translate(184,149)"/>
<path d="M0 0 C0.66 0 1.32 0 2 0 C3.0625 1.8125 3.0625 1.8125 4 4 C3.67 4.99 3.34 5.98 3 7 C1.68 5.68 0.36 4.36 -1 3 C-0.67 2.01 -0.34 1.02 0 0 Z " fill="#5E62CF" transform="translate(236,95)"/>
<path d="M0 0 C0.6875 1.625 0.6875 1.625 1 4 C-0.4375 7.25 -0.4375 7.25 -2 10 C-2.33 10 -2.66 10 -3 10 C-2.25 3.375 -2.25 3.375 0 0 Z " fill="#5B5CC1" transform="translate(234,69)"/>
</svg>
