<svg xmlns="http://www.w3.org/2000/svg" width="100" height="100" viewBox="0 0 100 100">
  <path fill="currentColor" d="M13.476 21.473c7.78-4.43 18.478-6.592 27.663-6.592 26.907 0 43.98 12.535 43.98 29.5 0 13.507-11.778 21.828-27.447 21.828-12.643 0-22.044-4.647-22.044-10.806 0-5.835 5.943-8.645 14.372-5.403l2.161-6.592c-13.075-4.214-23.88 1.73-23.88 11.995s12.75 17.613 29.823 17.613c20.315 0 35.12-11.238 35.12-28.635 0-21.72-20.532-37.604-52.085-37.604-10.157 0-21.611 2.593-31.013 7.672zm73.048 57.054c-7.78 4.43-18.478 6.592-27.663 6.592-26.907 0-43.98-12.535-43.98-29.5 0-13.507 11.778-21.828 27.447-21.828 12.643 0 22.044 4.647 22.044 10.806 0 5.835-5.943 8.645-14.372 5.403l-2.161 6.592c13.075 4.214 23.88-1.73 23.88-11.995S58.97 26.984 41.897 26.984c-20.315 0-35.12 11.238-35.12 28.635 0 21.72 20.532 37.604 52.085 37.604 10.157 0 21.611-2.593 31.013-7.672z" />
</svg>