<svg width="100" height="100" viewBox="0 0 100 100" fill="none" xmlns="http://www.w3.org/2000/svg">
  <path d="M50 10c12.43 0 22.5 10.07 22.5 22.5v7.25h1.25c7.6 0 13.75 6.15 13.75 13.75v12.25c0 13.4-10.85 24.25-24.25 24.25h-26.5C23.35 90 12.5 79.15 12.5 65.75V53.5c0-7.6 6.15-13.75 13.75-13.75h1.25V32.5C27.5 20.07 37.57 10 50 10Zm0 10c-6.9 0-12.5 5.6-12.5 12.5v7.25h25V32.5C62.5 25.6 56.9 20 50 20Zm-23.75 29.75A3.75 3.75 0 0 0 22.5 53.5v12.25C22.5 73.62 28.88 80 36.75 80h26.5C71.12 80 77.5 73.62 77.5 65.75V53.5a3.75 3.75 0 0 0-3.75-3.75h-47.5Z" fill="currentColor"/>
  <path d="M37.5 61.25a6.25 6.25 0 1 0 0-12.5 6.25 6.25 0 0 0 0 12.5Zm25 0a6.25 6.25 0 1 0 0-12.5 6.25 6.25 0 0 0 0 12.5ZM37.5 70h25a5 5 0 0 1 0 10h-25a5 5 0 0 1 0-10Z" fill="currentColor"/>
</svg>
