<svg xmlns="http://www.w3.org/2000/svg" width="100" height="100" viewBox="0 0 11 11" fill="none"><path d="M3.36462 2.05768C4.07064 2.05768 4.64496 2.63201 4.64496 3.33802L4.64496 3.88674L6.1082 3.88674L6.1082 3.33802C6.1082 2.63201 6.68253 2.05768 7.38854 2.05768C8.09456 2.05768 8.66888 2.63201 8.66888 3.33802C8.66888 4.04404 8.09455 4.61836 7.38854 4.61836L6.83982 4.61836L6.83982 6.0816L7.38854 6.0816C8.09455 6.0816 8.66888 6.65592 8.66888 7.36194C8.66888 8.06795 8.09455 8.64228 7.38854 8.64228C6.68253 8.64228 6.1082 8.06795 6.1082 7.36194L6.1082 6.81322L4.64496 6.81322L4.64496 7.36194C4.64496 8.06795 4.07064 8.64228 3.36462 8.64228C2.65861 8.64228 2.08429 8.06795 2.08429 7.36194C2.08429 6.65592 2.65861 6.0816 3.36462 6.0816L3.91334 6.0816L3.91334 4.61836L3.36462 4.61836C2.65861 4.61836 2.08429 4.04404 2.08429 3.33802C2.08429 2.63201 2.65861 2.05768 3.36462 2.05768ZM3.91334 3.88674L3.91334 3.33802C3.91334 3.0344 3.66825 2.78931 3.36462 2.78931C3.061 2.78931 2.81591 3.0344 2.81591 3.33802C2.81591 3.64164 3.061 3.88674 3.36462 3.88674L3.91334 3.88674ZM7.38854 3.88674C7.69216 3.88674 7.93726 3.64164 7.93726 3.33802C7.93726 3.0344 7.69216 2.78931 7.38854 2.78931C7.08492 2.78931 6.83982 3.0344 6.83982 3.33802L6.83982 3.88674L7.38854 3.88674ZM6.1082 6.0816L6.1082 4.61836L4.64496 4.61836L4.64496 6.0816L6.1082 6.0816ZM3.36462 7.91065C3.66825 7.91065 3.91334 7.66556 3.91334 7.36194L3.91334 6.81322L3.36462 6.81322C3.061 6.81322 2.81591 7.05832 2.81591 7.36194C2.81591 7.66556 3.061 7.91065 3.36462 7.91065ZM7.38854 7.91065C7.69216 7.91065 7.93726 7.66556 7.93726 7.36194C7.93726 7.05832 7.69216 6.81322 7.38854 6.81322L6.83982 6.81322L6.83982 7.36194C6.83982 7.66556 7.08492 7.91065 7.38854 7.91065Z" fill="currentColor"/></svg>
