<?xml version="1.0" encoding="UTF-8"?>
<svg id="Layer_1" xmlns="http://www.w3.org/2000/svg" version="1.1" viewBox="0 0 137 137">
  <!-- Generator: Adobe Illustrator 30.4.0, SVG Export Plug-In . SVG Version: 2.1.4 Build 226)  -->
  <defs>
    <style>
      .st0 {
        fill-rule: evenodd;
      }
    </style>
  </defs>
  <path class="st0" d="M69.26,9.61h-2.39c-14.98,0-25.69.01-33.83,1.11-7.99,1.07-12.71,3.1-16.18,6.58s-5.5,8.19-6.58,16.18c-1.09,8.14-1.11,18.85-1.11,33.83v2.39c0,14.98.01,25.69,1.11,33.83,1.07,7.99,3.1,12.71,6.58,16.18,3.47,3.47,8.19,5.5,16.18,6.58,8.14,1.09,18.85,1.11,33.83,1.11h2.39c14.98,0,25.69-.01,33.83-1.11,7.99-1.07,12.71-3.1,16.18-6.58,3.47-3.47,5.5-8.19,6.58-16.18,1.09-8.14,1.11-18.85,1.11-33.83v-2.39c0-14.98-.01-25.69-1.11-33.83-1.07-7.99-3.1-12.71-6.58-16.18-3.47-3.47-8.19-5.5-16.18-6.58-8.14-1.09-18.85-1.11-33.83-1.11ZM13.14,13.58C3.93,22.8,3.93,37.63,3.93,67.31v2.39c0,29.67,0,44.51,9.22,53.73,9.22,9.22,24.05,9.22,53.73,9.22h2.39c29.67,0,44.51,0,53.73-9.22,9.22-9.22,9.22-24.05,9.22-53.73v-2.39c0-29.67,0-44.51-9.22-53.73-9.22-9.22-24.05-9.22-53.73-9.22h-2.39c-29.67,0-44.51,0-53.73,9.22Z"/>
  <path d="M92.18,29.03c-8.46,0-15.35,6.89-15.35,15.35v6.58h-17.54v-6.58c0-8.46-6.89-15.35-15.35-15.35s-15.35,6.89-15.35,15.35,6.89,15.35,15.35,15.35h6.58v17.54h-6.58c-8.46,0-15.35,6.89-15.35,15.35s6.89,15.35,15.35,15.35,15.35-6.88,15.35-15.35v-6.58h17.54v6.58c0,8.46,6.89,15.35,15.35,15.35s15.35-6.88,15.35-15.35-6.88-15.35-15.35-15.35h-6.58v-17.54h6.58c8.46,0,15.35-6.89,15.35-15.35s-6.88-15.35-15.35-15.35ZM85.61,50.96v-6.58c0-3.64,2.94-6.58,6.58-6.58s6.58,2.94,6.58,6.58-2.94,6.58-6.58,6.58h-6.58ZM43.94,50.96c-3.64,0-6.58-2.94-6.58-6.58s2.94-6.58,6.58-6.58,6.58,2.94,6.58,6.58v6.58h-6.58ZM59.29,77.27v-17.54h17.54v17.54h-17.54ZM92.18,99.2c-3.64,0-6.58-2.94-6.58-6.58v-6.58h6.58c3.64,0,6.58,2.94,6.58,6.58s-2.94,6.58-6.58,6.58ZM43.94,99.2c-3.64,0-6.58-2.94-6.58-6.58s2.94-6.58,6.58-6.58h6.58v6.58c0,3.64-2.94,6.58-6.58,6.58Z"/>
</svg>